<svg xmlns="http://www.w3.org/2000/svg" clip-rule="evenodd" viewBox="0 0 50 65">
    <path d="M7.925 19.3h33.999l-1.79 22.112c-.021.848-.187 1.897-.247 2.693l-.427 5.58c-.216 1.638-.657 10.151-1.085 10.93-.355.65-1.105.992-2.075.992H13.549c-2.427 0-2.345-1.703-2.431-3.448l-.691-8.257c-.15-1.007-.113-1.818-.221-2.846L7.925 19.3zm-4.09-5.368c0-1.506.794-2.3 2.3-2.3h37.578c2.589 0 2.3 2.072 2.3 3.834H3.835v-1.534zm15.337-7.797c0-1.506.795-2.3 2.301-2.3h6.902c2.618 0 2.3 2.125 2.3 3.962H19.173V6.135zm-3.834-.639v2.3h-9.97C2.803 7.797 0 10.327 0 13.294v4.346c0 .783.878 1.661 1.662 1.661h2.3c0 1.216.475 4.794.511 6.263.063 2.488.688 6.927.768 9.458l1.587 18.991c.161 1.098.115 2.078.276 3.176.31 2.119-.164 5.598 2.95 7.403.654.38 1.64.85 2.6.85h24.54c.98 0 1.837-.437 2.517-.806 3.12-1.695 2.716-5.064 3.015-7.338.203-1.542.3-4.673.53-6.244.323-2.207.508-7.162.805-9.42.139-1.054.17-2.222.272-3.18l.787-9.565c.043-1.676.47-4.778.51-6.392.026-1.044.256-2.142.256-3.196h2.3c.784 0 1.662-.878 1.662-1.661 0-2.968.541-5.915-1.693-8.15-.92-.919-2.022-1.692-3.803-1.692H34.51c0-2.572.256-4.156-1.693-6.104C31.897.773 30.795 0 29.014 0h-8.308c-2.565 0-5.368 2.53-5.368 5.496z"/>
    <path d="M23.007 24.796v31.315c0 2.207 3.834 2.207 3.834 0V24.796c0-2.206-3.834-2.206-3.834 0zm7.669 0v31.315c0 2.207 3.834 2.207 3.834 0V24.796c0-2.206-3.834-2.206-3.834 0zm-15.338 0v31.315c0 2.207 3.834 2.207 3.834 0V24.796c0-2.206-3.834-2.206-3.834 0z"/>
</svg>
