<svg xmlns="http://www.w3.org/2000/svg" viewBox="0 0 30 30">
    <path d="M.101 5.164v21.709c0 1.557 1.469 3.026 3.026 3.026h19.497c1.54 0 3.026-1.462 3.026-3.085V16.048c0-.972-1.205-1.38-1.82-.773-.523.517-.333 1.505-.333 2.402l-.005 9.132c-.062.526-.529.937-.926.937H3.244c-.515 0-.99-.475-.99-.99V5.397c0-1.39 2.065-1.047 3.201-1.047h8.497c1.485 0 3.201.354 3.201-1.106 0-.538-.502-1.048-1.222-1.048H3.477c-.988 0-1.797.348-2.315.829-.55.512-1.061 1.343-1.061 2.14z" />
    <path d="M9.296 20.704c.016-.19 1.222-3.881 1.355-4.059l1.657-1.66 4.365-4.365 7.653-7.653c.2-.2.34-.361.605-.5 1.548-.817 3.478.807 2.604 2.603-.211.433-3.379 3.48-3.79 3.892l-8.73 8.73-1.077 1.076c-.743.743-.398.55-1.346.866l-1.615.538c-.367.123-1.351.504-1.68.532zM25.604.1h.416c.8.039 1.59.301 2.225.78 1.143.863 1.654 1.984 1.654 3.469 0 1.604-.976 2.518-1.906 3.448l-2.677 2.677L14.66 21.121c-.36.29-3.281 1.187-3.946 1.409l-2.008.669c-.304.1-.693.266-1.023.316a1.058 1.058 0 0 1-1.185-1.24c.053-.353 1.44-4.397 1.655-5.041.757-2.269.398-1.576 2.088-3.267l9.312-9.312c.766-.766 3.306-3.422 4.093-3.938A3.922 3.922 0 0 1 25.604.1z" />
</svg>
